<svg id="visual" viewBox="0 0 240 80" width="240" height="80" xmlns="http://www.w3.org/2000/svg" xmlns:xlink="http://www.w3.org/1999/xlink" version="1.1"><rect x="0" y="0" width="240" height="80" fill="#121513"></rect><defs><linearGradient id="grad1_0" x1="66.7%" y1="0%" x2="100%" y2="100%"><stop offset="-10%" stop-color="#159938" stop-opacity="1"></stop><stop offset="110%" stop-color="#159938" stop-opacity="1"></stop></linearGradient></defs><defs><linearGradient id="grad1_1" x1="66.7%" y1="0%" x2="100%" y2="100%"><stop offset="-10%" stop-color="#159938" stop-opacity="1"></stop><stop offset="110%" stop-color="#138536" stop-opacity="1"></stop></linearGradient></defs><defs><linearGradient id="grad1_2" x1="66.7%" y1="0%" x2="100%" y2="100%"><stop offset="-10%" stop-color="#137133" stop-opacity="1"></stop><stop offset="110%" stop-color="#138536" stop-opacity="1"></stop></linearGradient></defs><defs><linearGradient id="grad1_3" x1="66.7%" y1="0%" x2="100%" y2="100%"><stop offset="-10%" stop-color="#137133" stop-opacity="1"></stop><stop offset="110%" stop-color="#155d2e" stop-opacity="1"></stop></linearGradient></defs><defs><linearGradient id="grad1_4" x1="66.7%" y1="0%" x2="100%" y2="100%"><stop offset="-10%" stop-color="#164a29" stop-opacity="1"></stop><stop offset="110%" stop-color="#155d2e" stop-opacity="1"></stop></linearGradient></defs><defs><linearGradient id="grad1_5" x1="66.7%" y1="0%" x2="100%" y2="100%"><stop offset="-10%" stop-color="#164a29" stop-opacity="1"></stop><stop offset="110%" stop-color="#173822" stop-opacity="1"></stop></linearGradient></defs><defs><linearGradient id="grad1_6" x1="66.7%" y1="0%" x2="100%" y2="100%"><stop offset="-10%" stop-color="#15261b" stop-opacity="1"></stop><stop offset="110%" stop-color="#173822" stop-opacity="1"></stop></linearGradient></defs><defs><linearGradient id="grad1_7" x1="66.7%" y1="0%" x2="100%" y2="100%"><stop offset="-10%" stop-color="#15261b" stop-opacity="1"></stop><stop offset="110%" stop-color="#121513" stop-opacity="1"></stop></linearGradient></defs><defs><linearGradient id="grad2_0" x1="0%" y1="0%" x2="33.3%" y2="100%"><stop offset="-10%" stop-color="#159938" stop-opacity="1"></stop><stop offset="110%" stop-color="#159938" stop-opacity="1"></stop></linearGradient></defs><defs><linearGradient id="grad2_1" x1="0%" y1="0%" x2="33.3%" y2="100%"><stop offset="-10%" stop-color="#138536" stop-opacity="1"></stop><stop offset="110%" stop-color="#159938" stop-opacity="1"></stop></linearGradient></defs><defs><linearGradient id="grad2_2" x1="0%" y1="0%" x2="33.3%" y2="100%"><stop offset="-10%" stop-color="#138536" stop-opacity="1"></stop><stop offset="110%" stop-color="#137133" stop-opacity="1"></stop></linearGradient></defs><defs><linearGradient id="grad2_3" x1="0%" y1="0%" x2="33.3%" y2="100%"><stop offset="-10%" stop-color="#155d2e" stop-opacity="1"></stop><stop offset="110%" stop-color="#137133" stop-opacity="1"></stop></linearGradient></defs><defs><linearGradient id="grad2_4" x1="0%" y1="0%" x2="33.3%" y2="100%"><stop offset="-10%" stop-color="#155d2e" stop-opacity="1"></stop><stop offset="110%" stop-color="#164a29" stop-opacity="1"></stop></linearGradient></defs><defs><linearGradient id="grad2_5" x1="0%" y1="0%" x2="33.3%" y2="100%"><stop offset="-10%" stop-color="#173822" stop-opacity="1"></stop><stop offset="110%" stop-color="#164a29" stop-opacity="1"></stop></linearGradient></defs><defs><linearGradient id="grad2_6" x1="0%" y1="0%" x2="33.3%" y2="100%"><stop offset="-10%" stop-color="#173822" stop-opacity="1"></stop><stop offset="110%" stop-color="#15261b" stop-opacity="1"></stop></linearGradient></defs><defs><linearGradient id="grad2_7" x1="0%" y1="0%" x2="33.3%" y2="100%"><stop offset="-10%" stop-color="#121513" stop-opacity="1"></stop><stop offset="110%" stop-color="#15261b" stop-opacity="1"></stop></linearGradient></defs><g transform="translate(240, 0)"><path d="M0 72C-6.1 66.9 -12.2 61.9 -19.5 59.9C-26.7 58 -35.1 59.2 -40.6 55.8C-46 52.5 -48.5 44.5 -52.6 38.2C-56.6 31.9 -62.2 27.1 -64.7 21C-67.2 14.9 -66.6 7.5 -66 0L0 0Z" fill="#141d17"></path><path d="M0 63C-5.3 58.6 -10.7 54.1 -17 52.4C-23.4 50.7 -30.7 51.8 -35.5 48.8C-40.3 45.9 -42.5 39 -46 33.4C-49.5 27.9 -54.4 23.7 -56.6 18.4C-58.8 13 -58.3 6.5 -57.7 0L0 0Z" fill="#162f1f"></path><path d="M0 54C-4.6 50.2 -9.2 46.4 -14.6 44.9C-20 43.5 -26.3 44.4 -30.4 41.9C-34.5 39.3 -36.4 33.4 -39.4 28.7C-42.5 23.9 -46.6 20.3 -48.5 15.8C-50.4 11.2 -49.9 5.6 -49.5 0L0 0Z" fill="#174126"></path><path d="M0 45C-3.8 41.8 -7.6 38.7 -12.2 37.4C-16.7 36.2 -21.9 37 -25.3 34.9C-28.8 32.8 -30.3 27.8 -32.9 23.9C-35.4 19.9 -38.9 16.9 -40.4 13.1C-42 9.3 -41.6 4.7 -41.2 0L0 0Z" fill="#16532b"></path><path d="M0 36C-3.1 33.5 -6.1 30.9 -9.7 30C-13.4 29 -17.6 29.6 -20.3 27.9C-23 26.2 -24.3 22.3 -26.3 19.1C-28.3 15.9 -31.1 13.6 -32.3 10.5C-33.6 7.5 -33.3 3.7 -33 0L0 0Z" fill="#146730"></path><path d="M0 27C-2.3 25.1 -4.6 23.2 -7.3 22.5C-10 21.7 -13.2 22.2 -15.2 20.9C-17.3 19.7 -18.2 16.7 -19.7 14.3C-21.2 12 -23.3 10.2 -24.3 7.9C-25.2 5.6 -25 2.8 -24.7 0L0 0Z" fill="#137a34"></path><path d="M0 18C-1.5 16.7 -3.1 15.5 -4.9 15C-6.7 14.5 -8.8 14.8 -10.1 14C-11.5 13.1 -12.1 11.1 -13.1 9.6C-14.2 8 -15.5 6.8 -16.2 5.3C-16.8 3.7 -16.6 1.9 -16.5 0L0 0Z" fill="#138f37"></path><path d="M0 9C-0.8 8.4 -1.5 7.7 -2.4 7.5C-3.3 7.2 -4.4 7.4 -5.1 7C-5.8 6.6 -6.1 5.6 -6.6 4.8C-7.1 4 -7.8 3.4 -8.1 2.6C-8.4 1.9 -8.3 0.9 -8.2 0L0 0Z" fill="#159938"></path></g><g transform="translate(0, 80)"><path d="M0 -67C6.5 -65.7 13.1 -64.5 20.7 -63.7C28.3 -63 37 -62.8 42.3 -58.2C47.6 -53.7 49.5 -44.8 51.8 -37.6C54 -30.5 56.7 -25.1 59 -19.2C61.2 -13.2 63.1 -6.6 65 0L0 0Z" fill="#141d17"></path><path d="M0 -58.6C5.7 -57.5 11.4 -56.4 18.1 -55.8C24.8 -55.1 32.4 -55 37 -51C41.7 -47 43.3 -39.2 45.3 -32.9C47.3 -26.7 49.6 -22 51.6 -16.8C53.6 -11.5 55.2 -5.8 56.9 0L0 0Z" fill="#162f1f"></path><path d="M0 -50.2C4.9 -49.3 9.8 -48.3 15.5 -47.8C21.2 -47.2 27.8 -47.1 31.7 -43.7C35.7 -40.3 37.1 -33.6 38.8 -28.2C40.5 -22.9 42.5 -18.8 44.2 -14.4C45.9 -9.9 47.3 -4.9 48.8 0L0 0Z" fill="#174126"></path><path d="M0 -41.9C4.1 -41.1 8.2 -40.3 12.9 -39.8C17.7 -39.4 23.1 -39.3 26.5 -36.4C29.8 -33.6 30.9 -28 32.4 -23.5C33.8 -19 35.4 -15.7 36.9 -12C38.3 -8.2 39.4 -4.1 40.6 0L0 0Z" fill="#16532b"></path><path d="M0 -33.5C3.3 -32.9 6.5 -32.2 10.4 -31.9C14.2 -31.5 18.5 -31.4 21.2 -29.1C23.8 -26.8 24.8 -22.4 25.9 -18.8C27 -15.2 28.3 -12.6 29.5 -9.6C30.6 -6.6 31.6 -3.3 32.5 0L0 0Z" fill="#146730"></path><path d="M0 -25.1C2.5 -24.6 4.9 -24.2 7.8 -23.9C10.6 -23.6 13.9 -23.6 15.9 -21.8C17.9 -20.1 18.6 -16.8 19.4 -14.1C20.3 -11.4 21.3 -9.4 22.1 -7.2C23 -4.9 23.7 -2.5 24.4 0L0 0Z" fill="#137a34"></path><path d="M0 -16.7C1.6 -16.4 3.3 -16.1 5.2 -15.9C7.1 -15.7 9.3 -15.7 10.6 -14.6C11.9 -13.4 12.4 -11.2 12.9 -9.4C13.5 -7.6 14.2 -6.3 14.7 -4.8C15.3 -3.3 15.8 -1.6 16.3 0L0 0Z" fill="#138f37"></path><path d="M0 -8.4C0.8 -8.2 1.6 -8.1 2.6 -8C3.5 -7.9 4.6 -7.9 5.3 -7.3C6 -6.7 6.2 -5.6 6.5 -4.7C6.8 -3.8 7.1 -3.1 7.4 -2.4C7.7 -1.6 7.9 -0.8 8.1 0L0 0Z" fill="#159938"></path></g></svg>