<svg id="visual" viewBox="0 0 80 80" width="80" height="80" xmlns="http://www.w3.org/2000/svg" xmlns:xlink="http://www.w3.org/1999/xlink" version="1.1"><path d="M66 0L56 0L56 5L58 5L58 9L43 9L43 14L50 14L50 19L49 19L49 24L65 24L65 28L44 28L44 33L55 33L55 38L45 38L45 42L68 42L68 47L44 47L44 52L48 52L48 56L56 56L56 61L44 61L44 66L51 66L51 71L45 71L45 75L49 75L49 80L0 80L0 75L0 75L0 71L0 71L0 66L0 66L0 61L0 61L0 56L0 56L0 52L0 52L0 47L0 47L0 42L0 42L0 38L0 38L0 33L0 33L0 28L0 28L0 24L0 24L0 19L0 19L0 14L0 14L0 9L0 9L0 5L0 5L0 0L0 0Z" fill="#214a30"></path><path d="M46 0L43 0L43 5L33 5L33 9L48 9L48 14L47 14L47 19L37 19L37 24L40 24L40 28L49 28L49 33L28 33L28 38L27 38L27 42L31 42L31 47L44 47L44 52L48 52L48 56L38 56L38 61L34 61L34 66L29 66L29 71L32 71L32 75L43 75L43 80L0 80L0 75L0 75L0 71L0 71L0 66L0 66L0 61L0 61L0 56L0 56L0 52L0 52L0 47L0 47L0 42L0 42L0 38L0 38L0 33L0 33L0 28L0 28L0 24L0 24L0 19L0 19L0 14L0 14L0 9L0 9L0 5L0 5L0 0L0 0Z" fill="#1c7339"></path><path d="M29 0L30 0L30 5L26 5L26 9L12 9L12 14L22 14L22 19L14 19L14 24L30 24L30 28L13 28L13 33L17 33L17 38L16 38L16 42L19 42L19 47L30 47L30 52L13 52L13 56L30 56L30 61L15 61L15 66L29 66L29 71L29 71L29 75L28 75L28 80L0 80L0 75L0 75L0 71L0 71L0 66L0 66L0 61L0 61L0 56L0 56L0 52L0 52L0 47L0 47L0 42L0 42L0 38L0 38L0 33L0 33L0 28L0 28L0 24L0 24L0 19L0 19L0 14L0 14L0 9L0 9L0 5L0 5L0 0L0 0Z" fill="#1b9d3a"></path></svg>