<svg id="visual" viewBox="0 0 720 160" width="720" height="160" xmlns="http://www.w3.org/2000/svg" xmlns:xlink="http://www.w3.org/1999/xlink" version="1.1"><rect x="0" y="0" width="720" height="160" fill="#272e28"></rect><path d="M0 75L40 92L80 93L120 78L160 79L200 56L240 99L280 56L320 86L360 95L400 87L440 80L480 60L520 59L560 92L600 64L640 78L680 67L720 69L720 161L680 161L640 161L600 161L560 161L520 161L480 161L440 161L400 161L360 161L320 161L280 161L240 161L200 161L160 161L120 161L80 161L40 161L0 161Z" fill="#19702f"></path><path d="M0 96L40 95L80 109L120 97L160 81L200 83L240 104L280 94L320 115L360 81L400 80L440 101L480 100L520 96L560 92L600 98L640 104L680 103L720 97L720 161L680 161L640 161L600 161L560 161L520 161L480 161L440 161L400 161L360 161L320 161L280 161L240 161L200 161L160 161L120 161L80 161L40 161L0 161Z" fill="#188c36"></path><path d="M0 109L40 110L80 111L120 125L160 129L200 113L240 114L280 121L320 112L360 124L400 112L440 119L480 130L520 126L560 109L600 128L640 135L680 123L720 105L720 161L680 161L640 161L600 161L560 161L520 161L480 161L440 161L400 161L360 161L320 161L280 161L240 161L200 161L160 161L120 161L80 161L40 161L0 161Z" fill="#16a93c"></path><path d="M0 120L40 123L80 141L120 148L160 145L200 120L240 122L280 121L320 129L360 144L400 147L440 127L480 151L520 149L560 147L600 145L640 141L680 147L720 129L720 161L680 161L640 161L600 161L560 161L520 161L480 161L440 161L400 161L360 161L320 161L280 161L240 161L200 161L160 161L120 161L80 161L40 161L0 161Z" fill="#14c741"></path></svg>