<svg id="visual" viewBox="0 0 150 150" width="150" height="150" xmlns="http://www.w3.org/2000/svg" xmlns:xlink="http://www.w3.org/1999/xlink" version="1.1"><rect x="0" y="0" width="150" height="150" fill="#1c211d"></rect><g transform="translate(88.74282870005106 69.36182164054452)"><path d="M22.8 -39.4C28.3 -36.4 30.6 -27.7 33.3 -20.2C35.9 -12.7 39 -6.3 38.8 -0.1C38.7 6.2 35.4 12.3 31.4 17.7C27.5 23 23 27.5 17.7 34.8C12.3 42 6.2 52 -2.7 56.8C-11.7 61.5 -23.3 61.1 -32.9 56.2C-42.4 51.4 -49.8 42.2 -56.4 32.1C-63.1 22 -69.1 11 -64.9 2.4C-60.7 -6.2 -46.4 -12.3 -39.4 -22C-32.5 -31.7 -33 -44.8 -27.7 -48C-22.3 -51.2 -11.2 -44.3 -1.3 -42.2C8.7 -40 17.3 -42.5 22.8 -39.4" fill="#1a8737"></path></g></svg>