<svg id="visual" viewBox="0 0 720 160" width="720" height="160" xmlns="http://www.w3.org/2000/svg" xmlns:xlink="http://www.w3.org/1999/xlink" version="1.1"><rect x="0" y="0" width="720" height="160" fill="#272e28"></rect><path d="M0 126L40 123L80 134L120 132L160 133L200 136L240 132L280 138L320 134L360 125L400 124L440 137L480 127L520 135L560 121L600 122L640 127L680 134L720 129L720 161L680 161L640 161L600 161L560 161L520 161L480 161L440 161L400 161L360 161L320 161L280 161L240 161L200 161L160 161L120 161L80 161L40 161L0 161Z" fill="#19702f"></path><path d="M0 138L40 140L80 133L120 138L160 132L200 128L240 133L280 143L320 141L360 133L400 136L440 131L480 135L520 143L560 140L600 126L640 143L680 128L720 132L720 161L680 161L640 161L600 161L560 161L520 161L480 161L440 161L400 161L360 161L320 161L280 161L240 161L200 161L160 161L120 161L80 161L40 161L0 161Z" fill="#188c36"></path><path d="M0 141L40 140L80 146L120 143L160 136L200 135L240 138L280 138L320 148L360 142L400 135L440 147L480 145L520 139L560 147L600 148L640 147L680 140L720 137L720 161L680 161L640 161L600 161L560 161L520 161L480 161L440 161L400 161L360 161L320 161L280 161L240 161L200 161L160 161L120 161L80 161L40 161L0 161Z" fill="#16a93c"></path><path d="M0 154L40 147L80 155L120 144L160 146L200 150L240 148L280 147L320 144L360 147L400 153L440 150L480 154L520 151L560 146L600 146L640 144L680 148L720 149L720 161L680 161L640 161L600 161L560 161L520 161L480 161L440 161L400 161L360 161L320 161L280 161L240 161L200 161L160 161L120 161L80 161L40 161L0 161Z" fill="#14c741"></path></svg>