<svg id="visual" viewBox="0 0 1920 1080" width="1920" height="1080" xmlns="http://www.w3.org/2000/svg" xmlns:xlink="http://www.w3.org/1999/xlink" version="1.1"><rect x="0" y="0" width="1920" height="1080" fill="#ffffff"></rect><defs><linearGradient id="grad1_0" x1="43.8%" y1="0%" x2="100%" y2="100%"><stop offset="14.444444444444446%" stop-color="#45f570" stop-opacity="1"></stop><stop offset="85.55555555555554%" stop-color="#45f570" stop-opacity="1"></stop></linearGradient></defs><defs><linearGradient id="grad1_1" x1="43.8%" y1="0%" x2="100%" y2="100%"><stop offset="14.444444444444446%" stop-color="#45f570" stop-opacity="1"></stop><stop offset="85.55555555555554%" stop-color="#6ff785" stop-opacity="1"></stop></linearGradient></defs><defs><linearGradient id="grad1_2" x1="43.8%" y1="0%" x2="100%" y2="100%"><stop offset="14.444444444444446%" stop-color="#8dfa9a" stop-opacity="1"></stop><stop offset="85.55555555555554%" stop-color="#6ff785" stop-opacity="1"></stop></linearGradient></defs><defs><linearGradient id="grad1_3" x1="43.8%" y1="0%" x2="100%" y2="100%"><stop offset="14.444444444444446%" stop-color="#8dfa9a" stop-opacity="1"></stop><stop offset="85.55555555555554%" stop-color="#a7fbae" stop-opacity="1"></stop></linearGradient></defs><defs><linearGradient id="grad1_4" x1="43.8%" y1="0%" x2="100%" y2="100%"><stop offset="14.444444444444446%" stop-color="#bffdc2" stop-opacity="1"></stop><stop offset="85.55555555555554%" stop-color="#a7fbae" stop-opacity="1"></stop></linearGradient></defs><defs><linearGradient id="grad1_5" x1="43.8%" y1="0%" x2="100%" y2="100%"><stop offset="14.444444444444446%" stop-color="#bffdc2" stop-opacity="1"></stop><stop offset="85.55555555555554%" stop-color="#d5fed7" stop-opacity="1"></stop></linearGradient></defs><defs><linearGradient id="grad1_6" x1="43.8%" y1="0%" x2="100%" y2="100%"><stop offset="14.444444444444446%" stop-color="#ebffeb" stop-opacity="1"></stop><stop offset="85.55555555555554%" stop-color="#d5fed7" stop-opacity="1"></stop></linearGradient></defs><defs><linearGradient id="grad1_7" x1="43.8%" y1="0%" x2="100%" y2="100%"><stop offset="14.444444444444446%" stop-color="#ebffeb" stop-opacity="1"></stop><stop offset="85.55555555555554%" stop-color="#ffffff" stop-opacity="1"></stop></linearGradient></defs><defs><linearGradient id="grad2_0" x1="0%" y1="0%" x2="56.3%" y2="100%"><stop offset="14.444444444444446%" stop-color="#45f570" stop-opacity="1"></stop><stop offset="85.55555555555554%" stop-color="#45f570" stop-opacity="1"></stop></linearGradient></defs><defs><linearGradient id="grad2_1" x1="0%" y1="0%" x2="56.3%" y2="100%"><stop offset="14.444444444444446%" stop-color="#6ff785" stop-opacity="1"></stop><stop offset="85.55555555555554%" stop-color="#45f570" stop-opacity="1"></stop></linearGradient></defs><defs><linearGradient id="grad2_2" x1="0%" y1="0%" x2="56.3%" y2="100%"><stop offset="14.444444444444446%" stop-color="#6ff785" stop-opacity="1"></stop><stop offset="85.55555555555554%" stop-color="#8dfa9a" stop-opacity="1"></stop></linearGradient></defs><defs><linearGradient id="grad2_3" x1="0%" y1="0%" x2="56.3%" y2="100%"><stop offset="14.444444444444446%" stop-color="#a7fbae" stop-opacity="1"></stop><stop offset="85.55555555555554%" stop-color="#8dfa9a" stop-opacity="1"></stop></linearGradient></defs><defs><linearGradient id="grad2_4" x1="0%" y1="0%" x2="56.3%" y2="100%"><stop offset="14.444444444444446%" stop-color="#a7fbae" stop-opacity="1"></stop><stop offset="85.55555555555554%" stop-color="#bffdc2" stop-opacity="1"></stop></linearGradient></defs><defs><linearGradient id="grad2_5" x1="0%" y1="0%" x2="56.3%" y2="100%"><stop offset="14.444444444444446%" stop-color="#d5fed7" stop-opacity="1"></stop><stop offset="85.55555555555554%" stop-color="#bffdc2" stop-opacity="1"></stop></linearGradient></defs><defs><linearGradient id="grad2_6" x1="0%" y1="0%" x2="56.3%" y2="100%"><stop offset="14.444444444444446%" stop-color="#d5fed7" stop-opacity="1"></stop><stop offset="85.55555555555554%" stop-color="#ebffeb" stop-opacity="1"></stop></linearGradient></defs><defs><linearGradient id="grad2_7" x1="0%" y1="0%" x2="56.3%" y2="100%"><stop offset="14.444444444444446%" stop-color="#ffffff" stop-opacity="1"></stop><stop offset="85.55555555555554%" stop-color="#ebffeb" stop-opacity="1"></stop></linearGradient></defs><g transform="translate(1920, 0)"><path d="M0 928C-101 925 -202 922 -288.3 887.3C-374.6 852.7 -446.2 786.4 -530.2 729.7C-614.2 673.1 -710.5 626 -754.8 548.4C-799.1 470.8 -791.3 362.6 -818.9 266.1C-846.4 169.6 -909.2 84.8 -972 0L0 0Z" fill="#f5fff5"></path><path d="M0 812C-88.4 809.4 -176.8 806.7 -252.3 776.4C-327.8 746.1 -390.4 688.1 -463.9 638.5C-537.4 588.9 -621.7 547.8 -660.5 479.9C-699.2 411.9 -692.4 317.2 -716.5 232.8C-740.6 148.4 -795.5 74.2 -850.5 0L0 0Z" fill="#e0fee1"></path><path d="M0 696C-75.8 693.7 -151.5 691.5 -216.2 665.5C-281 639.5 -334.7 589.8 -397.6 547.3C-460.6 504.8 -532.9 469.5 -566.1 411.3C-599.3 353.1 -593.5 271.9 -614.1 199.5C-634.8 127.2 -681.9 63.6 -729 0L0 0Z" fill="#cafdcd"></path><path d="M0 580C-63.1 578.1 -126.3 576.2 -180.2 554.6C-234.1 532.9 -278.9 491.5 -331.4 456.1C-383.8 420.7 -444.1 391.3 -471.8 342.8C-499.4 294.2 -494.6 226.6 -511.8 166.3C-529 106 -568.2 53 -607.5 0L0 0Z" fill="#b4fcb8"></path><path d="M0 464C-50.5 462.5 -101 461 -144.2 443.7C-187.3 426.3 -223.1 393.2 -265.1 364.9C-307.1 336.5 -355.3 313 -377.4 274.2C-399.6 235.4 -395.7 181.3 -409.4 133C-423.2 84.8 -454.6 42.4 -486 0L0 0Z" fill="#9bfba4"></path><path d="M0 348C-37.9 346.9 -75.8 345.7 -108.1 332.8C-140.5 319.8 -167.3 294.9 -198.8 273.6C-230.3 252.4 -266.4 234.8 -283.1 205.7C-299.7 176.5 -296.8 136 -307.1 99.8C-317.4 63.6 -340.9 31.8 -364.5 0L0 0Z" fill="#7ff990"></path><path d="M0 232C-25.3 231.2 -50.5 230.5 -72.1 221.8C-93.7 213.2 -111.6 196.6 -132.5 182.4C-153.5 168.3 -177.6 156.5 -188.7 137.1C-199.8 117.7 -197.8 90.6 -204.7 66.5C-211.6 42.4 -227.3 21.2 -243 0L0 0Z" fill="#5cf67b"></path><path d="M0 116C-12.6 115.6 -25.3 115.2 -36 110.9C-46.8 106.6 -55.8 98.3 -66.3 91.2C-76.8 84.1 -88.8 78.3 -94.4 68.6C-99.9 58.8 -98.9 45.3 -102.4 33.3C-105.8 21.2 -113.6 10.6 -121.5 0L0 0Z" fill="#45f570"></path></g><g transform="translate(0, 1080)"><path d="M0 -910C85.1 -875.4 170.2 -840.7 269.2 -828.4C368.1 -816 480.8 -825.9 571.3 -786.4C661.9 -746.8 730.4 -657.8 778.3 -565.4C826.2 -473.1 853.6 -377.3 869.3 -282.4C885 -187.6 889 -93.8 893 0L0 0Z" fill="#f5fff5"></path><path d="M0 -796.2C74.5 -765.9 149 -735.6 235.5 -724.8C322.1 -714 420.7 -722.7 499.9 -688.1C579.2 -653.5 639.1 -575.6 681 -494.8C722.9 -413.9 746.9 -330.1 760.6 -247.1C774.3 -164.2 777.9 -82.1 781.4 0L0 0Z" fill="#e0fee1"></path><path d="M0 -682.5C63.8 -656.5 127.7 -630.6 201.9 -621.3C276 -612 360.6 -619.4 428.5 -589.8C496.4 -560.1 547.8 -493.4 583.7 -424.1C619.6 -354.8 640.2 -282.9 651.9 -211.8C663.7 -140.7 666.7 -70.4 669.8 0L0 0Z" fill="#cafdcd"></path><path d="M0 -568.7C53.2 -547.1 106.4 -525.5 168.2 -517.7C230 -510 300.5 -516.2 357.1 -491.5C413.7 -466.8 456.5 -411.2 486.4 -353.4C516.4 -295.7 533.5 -235.8 543.3 -176.5C553.1 -117.3 555.6 -58.6 558.1 0L0 0Z" fill="#b4fcb8"></path><path d="M0 -455C42.6 -437.7 85.1 -420.4 134.6 -414.2C184 -408 240.4 -413 285.7 -393.2C331 -373.4 365.2 -328.9 389.1 -282.7C413.1 -236.5 426.8 -188.6 434.6 -141.2C442.5 -93.8 444.5 -46.9 446.5 0L0 0Z" fill="#9bfba4"></path><path d="M0 -341.2C31.9 -328.3 63.8 -315.3 100.9 -310.6C138 -306 180.3 -309.7 214.2 -294.9C248.2 -280.1 273.9 -246.7 291.9 -212C309.8 -177.4 320.1 -141.5 326 -105.9C331.9 -70.4 333.4 -35.2 334.9 0L0 0Z" fill="#7ff990"></path><path d="M0 -227.5C21.3 -218.8 42.6 -210.2 67.3 -207.1C92 -204 120.2 -206.5 142.8 -196.6C165.5 -186.7 182.6 -164.5 194.6 -141.4C206.5 -118.3 213.4 -94.3 217.3 -70.6C221.2 -46.9 222.2 -23.5 223.3 0L0 0Z" fill="#5cf67b"></path><path d="M0 -113.7C10.6 -109.4 21.3 -105.1 33.6 -103.5C46 -102 60.1 -103.2 71.4 -98.3C82.7 -93.4 91.3 -82.2 97.3 -70.7C103.3 -59.1 106.7 -47.2 108.7 -35.3C110.6 -23.5 111.1 -11.7 111.6 0L0 0Z" fill="#45f570"></path></g></svg>